<svg width="0" height="0" class="hidden">
  <symbol xmlns="http://www.w3.org/2000/svg" viewBox="0 0 18 15" id="icon-hamburger">
    <path fill="var(--color-icon, #242A45)" fill-rule="evenodd" d="M0 0h18v3H0V0zm0 6h18v3H0V6zm0 6h18v3H0v-3z"></path>
  </symbol>
  <symbol xmlns="http://www.w3.org/2000/svg" viewBox="0 0 20 20" id="icon-error">
    <g fill="none" fill-rule="evenodd">
      <circle cx="10" cy="10" r="10" fill="#FA5959"></circle>
      <g fill="#FFF" transform="translate(9 5)">
        <rect width="2" height="7" rx="1"></rect>
        <rect width="2" height="2" y="8" rx="1"></rect>
      </g>
    </g>
  </symbol>
  <symbol xmlns="http://www.w3.org/2000/svg" viewBox="0 0 16 15" id="icon-close">
    <path fill="var(--color-icon, #FFF)" fill-rule="evenodd" d="M8 5.379L13.303.075l2.122 2.122L10.12 7.5l5.304 5.303-2.122 2.122L8 9.62l-5.303 5.304-2.122-2.122L5.88 7.5.575 2.197 2.697.075 8 5.38z"></path>
  </symbol>
  <symbol xmlns="http://www.w3.org/2000/svg" viewBox="0 0 18 12" id="icon-arrow">
    <path fill="none" stroke="#5267DF" stroke-width="3" d="M1 1l8 8 8-8"></path>
  </symbol>
</svg>